<svg xmlns="http://www.w3.org/2000/svg" width="512" height="512" viewBox="0 0 512 512" version="1.1">
	<path d="M 355.599 245.204 C 353.615 246.315, 353.582 249.863, 355.532 252.441 C 357.633 255.219, 357.359 261.938, 355 265.500 C 351.042 271.476, 353.184 274.915, 358.981 271.893 C 363.015 269.790, 366.339 270.293, 368.914 273.396 C 370.868 275.751, 375.428 275.352, 378.779 272.532 L 381.712 270.065 384.079 272.585 C 386.743 275.420, 389.444 275.244, 394.093 271.934 C 397.556 269.468, 397.926 269.495, 402 272.500 C 405.812 275.313, 410.137 275.745, 412 273.500 C 412.685 272.675, 414.173 272, 415.308 272 C 416.443 272, 418.405 271.029, 419.668 269.842 L 421.964 267.685 424.055 270.342 C 428.632 276.161, 432 272.071, 432 260.694 C 432 254.852, 432.321 252.940, 433.250 253.247 C 434.074 253.519, 434.601 256.346, 434.796 261.533 C 435.126 270.335, 435.968 272, 440.087 272 C 443.978 272, 445 269.614, 445 260.531 C 445 255.309, 445.491 252.180, 446.569 250.534 C 448.034 248.300, 447.994 247.994, 445.976 245.976 C 444.151 244.151, 443.086 243.909, 439.157 244.427 C 435.113 244.959, 418.762 245.268, 408 245.015 C 402.135 244.877, 394.426 245.619, 393.081 246.450 C 392.382 246.882, 390.702 246.644, 389.350 245.919 C 387.436 244.895, 386.218 244.857, 383.863 245.746 C 382.026 246.439, 379.964 246.557, 378.617 246.044 C 377.397 245.580, 374.396 245.424, 371.949 245.697 C 369.502 245.970, 365.182 245.769, 362.349 245.251 C 359.298 244.693, 356.547 244.674, 355.599 245.204 M 471.500 244.963 C 470.400 245.456, 468.138 245.891, 466.473 245.930 C 464.807 245.968, 462.389 246.740, 461.098 247.644 C 458.927 249.164, 458.789 249.802, 459.244 256.166 C 459.515 259.950, 459.346 263.286, 458.868 263.582 C 457.859 264.205, 457.782 263.511, 457.992 255.661 C 458.107 251.366, 457.691 249.316, 456.419 247.911 C 452.822 243.936, 448.135 246.594, 450.016 251.542 C 450.599 253.075, 450.946 258.233, 450.788 263.005 C 450.581 269.240, 450.886 272.149, 451.872 273.341 C 453.587 275.413, 459.329 275.513, 461 273.500 C 462.557 271.624, 466.718 271.624, 470 273.500 C 478.679 278.461, 485.575 268.521, 479.865 259.281 L 477.729 255.826 479.840 252.071 C 481.559 249.013, 481.723 248.010, 480.725 246.671 C 479.232 244.667, 474.226 243.740, 471.500 244.963 M 410.001 251.499 C 409.035 252.662, 409.018 253.630, 409.923 255.815 C 410.773 257.865, 410.798 259.400, 410.019 261.451 C 409.176 263.668, 409.278 264.775, 410.496 266.635 C 413.545 271.288, 415.148 268.865, 415.548 259 C 415.809 252.572, 414.938 250, 412.500 250 C 411.810 250, 410.685 250.675, 410.001 251.499 M 466.362 259.500 C 465.410 261.981, 466.783 264, 469.422 264 C 471.895 264, 471.898 263.985, 470.203 261.006 C 468.311 257.680, 467.223 257.254, 466.362 259.500 M 353 298 C 350.154 300.846, 350.095 313.661, 352.912 317.139 C 354.809 319.481, 354.998 319.501, 376.964 319.671 C 392.505 319.791, 399.536 320.200, 400.552 321.043 C 401.776 322.059, 402 329.147, 402 366.928 C 402 409.694, 401.910 411.879, 399.898 417.836 C 396.656 427.435, 387.850 434.226, 366.250 443.784 C 359.265 446.875, 359 447.119, 359 450.452 C 359 453.861, 360.626 456.965, 367.072 465.862 C 369.998 469.900, 370.493 470.182, 373.744 469.654 C 379.932 468.650, 400.466 457.844, 408.500 451.364 C 419.306 442.648, 424.268 436.334, 427.746 426.877 L 430.459 419.500 430.800 359.656 C 431.116 304.110, 431.016 299.676, 429.415 297.906 C 427.779 296.098, 425.824 296, 391.345 296 C 356.333 296, 354.927 296.073, 353 298 M 455.571 297.571 C 454.179 298.964, 454 305.793, 454 357.629 C 454 413.162, 453.894 416.630, 451.898 426.308 C 446.821 450.926, 435.576 463.914, 406.242 479.042 C 400.884 481.805, 395.735 484.973, 394.800 486.082 C 391.855 489.574, 392.933 490.614, 407.911 498.742 C 415.622 502.925, 418.724 502.781, 427.285 497.839 C 430.467 496.003, 434.292 493.816, 435.785 492.980 C 456.754 481.241, 471.266 463.642, 478.650 441 L 481.421 432.500 481.768 365.879 C 482.084 305.359, 481.966 299.109, 480.486 297.629 C 478.151 295.294, 457.896 295.247, 455.571 297.571" stroke="none" fill="black" fill-rule="evenodd"/>
</svg>